<svg width="24" height="24" viewBox="0 0 24 24" fill="none" xmlns="http://www.w3.org/2000/svg">
<path d="M11.9999 2.15974C15.2041 2.15974 15.5836 2.17197 16.849 2.22963C18.019 2.28297 18.6544 2.47819 19.0772 2.64234C19.5985 2.83449 20.0699 3.14088 20.457 3.53898C20.8556 3.92562 21.1623 4.39655 21.3547 4.91718C21.519 5.33954 21.7145 5.97421 21.7678 7.14286C21.8256 8.40682 21.8378 8.78589 21.8378 11.9865C21.8378 15.1871 21.8256 15.566 21.7678 16.8301C21.7144 17.9988 21.519 18.6334 21.3547 19.0558C21.155 19.5727 20.8493 20.0422 20.457 20.434C20.0648 20.8258 19.5948 21.1312 19.0772 21.3306C18.6544 21.4948 18.019 21.69 16.849 21.7433C15.5839 21.801 15.2044 21.8132 11.9999 21.8132C8.79547 21.8132 8.41611 21.801 7.15082 21.7433C5.98084 21.69 5.3455 21.4947 4.92261 21.3306C4.4014 21.1385 3.92992 20.8321 3.54285 20.434C3.1443 20.0473 2.83757 19.5764 2.64519 19.0558C2.48086 18.6334 2.28537 17.9988 2.23202 16.8301C2.17429 15.5662 2.16205 15.1871 2.16205 11.9865C2.16205 8.78589 2.17429 8.40691 2.23202 7.14286C2.28542 5.97421 2.48086 5.33959 2.64519 4.91718C2.83759 4.39653 3.14435 3.92557 3.54295 3.53893C3.93002 3.14084 4.40149 2.83445 4.9227 2.64229C5.34555 2.47814 5.98093 2.28288 7.15091 2.22959C8.4163 2.17192 8.7958 2.15969 12 2.15969L11.9999 2.15974ZM12 0C8.74102 0 8.33223 0.0137981 7.0525 0.0721309C5.77521 0.130369 4.90294 0.332963 4.13965 0.62929C3.33896 0.930262 2.61363 1.40207 2.01424 2.01181C1.40367 2.61049 0.93119 3.335 0.629765 4.13482C0.333341 4.89729 0.130516 5.76857 0.0724508 7.04442C0.0138138 8.3227 0 8.73103 0 11.9863C0 15.2416 0.0138138 15.65 0.0724508 16.9283C0.130754 18.2041 0.333579 19.0754 0.630241 19.8378C0.931556 20.6376 1.4039 21.3621 2.01433 21.9608C2.61372 22.5706 3.33905 23.0424 4.13975 23.3433C4.90308 23.6397 5.77535 23.8423 7.0526 23.9005C8.33251 23.9588 8.74116 23.9726 12.0001 23.9726C15.2591 23.9726 15.6679 23.9588 16.9476 23.9005C18.2249 23.8423 19.0972 23.6397 19.8605 23.3433C20.6576 23.0354 21.3816 22.5645 21.9859 21.9608C22.5903 21.3572 23.0617 20.634 23.37 19.8378C23.6667 19.0753 23.8695 18.2041 23.9278 16.9283C23.9862 15.6498 24 15.2416 24 11.9863C24 8.73107 23.9862 8.3227 23.9278 7.04442C23.8695 5.76857 23.6667 4.89729 23.37 4.13487C23.0687 3.33508 22.5963 2.61057 21.9859 2.01186C21.3865 1.402 20.6611 0.930088 19.8603 0.629052C19.097 0.332963 18.2247 0.130369 16.9474 0.0723688C15.6677 0.0137981 15.2589 0 11.9999 0H12Z" fill="#999999"/>
<path d="M12 5.83203C10.7813 5.83203 9.58989 6.19302 8.57653 6.86936C7.56317 7.5457 6.77336 8.507 6.30696 9.63171C5.84056 10.7564 5.71853 11.994 5.9563 13.188C6.19406 14.382 6.78095 15.4787 7.64274 16.3395C8.50453 17.2003 9.60252 17.7866 10.7979 18.0241C11.9932 18.2616 13.2322 18.1397 14.3582 17.6738C15.4842 17.2079 16.4466 16.419 17.1237 15.4068C17.8008 14.3946 18.1622 13.2046 18.1622 11.9872C18.1622 10.3547 17.5129 8.78915 16.3573 7.63483C15.2017 6.48052 13.6343 5.83203 12 5.83203ZM12 15.9826C11.2089 15.9826 10.4356 15.7483 9.77779 15.3092C9.12001 14.8702 8.60733 14.2462 8.30459 13.5161C8.00186 12.7861 7.92265 11.9827 8.07699 11.2077C8.23134 10.4327 8.6123 9.72075 9.1717 9.16198C9.73111 8.60322 10.4438 8.2227 11.2197 8.06854C11.9957 7.91438 12.7999 7.9935 13.5308 8.29591C14.2617 8.59831 14.8864 9.11042 15.3259 9.76746C15.7654 10.4245 16 11.197 16 11.9872C16 13.0468 15.5786 14.0631 14.8284 14.8124C14.0783 15.5617 13.0609 15.9826 12 15.9826Z" fill="#999999"/>
<path d="M18.4053 7.02706C19.2006 7.02706 19.8453 6.3831 19.8453 5.58873C19.8453 4.79436 19.2006 4.15039 18.4053 4.15039C17.61 4.15039 16.9653 4.79436 16.9653 5.58873C16.9653 6.3831 17.61 7.02706 18.4053 7.02706Z" fill="#999999"/>
</svg>
