<svg width="100%" height="100%" viewBox="0 0 923 648" fill="none" xmlns="http://www.w3.org/2000/svg">
<path d="M428.571 30.8894C427.479 30.0681 426.403 29.2468 425.36 28.4255C417.223 22.3925 408.667 16.9471 399.757 12.1307C396.866 21.8371 394.67 31.737 393.186 41.7553C392.997 43.0365 392.816 44.3671 392.643 45.7304C401.398 48.5056 409.901 52.0226 418.057 56.2432C420.841 47.5106 424.358 39.0291 428.571 30.8894Z" fill="#FFC29E"/>
<path d="M444.03 74.624C446.921 68.0783 450.468 61.8427 454.618 56.0131C449.175 49.3514 443.167 43.1714 436.662 37.5419C432.801 45.2316 429.616 53.2421 427.142 61.4831C433.202 65.2805 438.86 69.6834 444.03 74.624Z" fill="#FFC29E"/>
<path d="M469.304 80.1186C467.039 74.7223 464.258 69.557 461 64.6944C457.75 69.5584 454.974 74.7236 452.712 80.1186C452.326 81.0467 451.981 81.9665 451.636 82.8864C455.262 87.3648 458.406 92.2126 461.017 97.3496C463.622 92.2196 466.764 87.3798 470.389 82.911C470.044 81.9829 469.691 81.0549 469.304 80.1186Z" fill="#FFC29E"/>
<path d="M485.363 37.5173C478.847 43.1499 472.831 49.3355 467.382 56.0049C471.541 61.8407 475.094 68.0847 477.987 74.6404C483.166 69.7001 488.832 65.2973 494.899 61.4995C492.421 53.2444 489.23 45.2202 485.363 37.5173Z" fill="#FFC29E"/>
<path d="M540.914 168.245C546.306 165.979 551.469 163.201 556.331 159.95C551.469 156.698 546.306 153.921 540.914 151.654C539.977 151.268 539.057 150.923 538.137 150.579C533.66 154.209 528.808 157.354 523.664 159.958C528.792 162.568 533.632 165.709 538.105 169.329C539.008 168.984 539.936 168.631 540.914 168.245Z" fill="#FFC29E"/>
<path d="M529.348 45.7551C529.168 44.3096 528.979 42.8969 528.773 41.5335C527.286 31.5886 525.09 21.7627 522.202 12.1307C513.293 16.9479 504.74 22.3962 496.608 28.4337C495.567 29.2057 494.502 30.027 493.412 30.8976C497.64 39.0307 501.166 47.51 503.951 56.2432C512.105 52.0351 520.601 48.5265 529.348 45.7551Z" fill="#FFC29E"/>
<path d="M461 47.7098C466.923 40.7096 473.427 34.2228 480.443 28.3187C479.769 27.1278 479.096 25.9615 478.43 24.8528C473.221 16.1667 467.402 7.86159 461.017 0C454.634 7.86215 448.818 16.1673 443.611 24.8528C442.949 25.9807 442.27 27.1442 441.574 28.3433C448.584 34.2391 455.083 40.7177 461 47.7098Z" fill="#FFC29E"/>
<path d="M452.737 239.805C454.998 245.2 457.777 250.362 461.033 255.221C464.285 250.36 467.063 245.197 469.329 239.805C469.715 238.877 470.06 237.957 470.405 237.029C466.775 232.555 463.628 227.71 461.016 222.574C458.414 227.704 455.275 232.544 451.653 237.013C451.998 237.941 452.343 238.869 452.737 239.805Z" fill="#FFC29E"/>
<path d="M493.462 289.035C494.554 289.856 495.63 290.677 496.682 291.499C504.815 297.531 513.368 302.977 522.276 307.793C525.17 298.088 527.366 288.188 528.847 278.169C529.036 276.888 529.217 275.557 529.39 274.194C520.626 271.413 512.116 267.89 503.951 263.664C501.18 272.403 497.671 280.89 493.462 289.035Z" fill="#FFC29E"/>
<path d="M477.995 245.3C475.108 251.846 471.563 258.082 467.415 263.911C472.859 270.575 478.869 276.755 485.379 282.382C489.242 274.691 492.433 266.681 494.915 258.441C488.849 254.639 483.18 250.237 477.995 245.3Z" fill="#FFC29E"/>
<path d="M436.67 282.407C443.191 276.775 449.213 270.589 454.667 263.919C450.513 258.082 446.963 251.838 444.071 245.283C438.891 250.226 433.221 254.629 427.15 258.424C429.631 266.676 432.816 274.7 436.67 282.407Z" fill="#FFC29E"/>
<path d="M575.24 228.291C576.686 228.11 578.098 227.913 579.454 227.716C589.401 226.22 599.23 224.025 608.868 221.145C604.052 212.236 598.603 203.683 592.563 195.553C591.78 194.513 590.959 193.448 590.099 192.358C581.958 196.588 573.473 200.119 564.734 202.912C568.947 211.06 572.462 219.55 575.24 228.291Z" fill="#FFC29E"/>
<path d="M575.248 91.6005C572.471 100.357 568.954 108.86 564.734 117.02C573.474 119.802 581.961 123.319 590.107 127.533C590.929 126.449 591.75 125.373 592.572 124.321C598.608 116.189 604.057 107.637 608.876 98.7295C599.169 95.839 589.268 93.6433 579.248 92.159C577.934 91.9537 576.612 91.773 575.248 91.6005Z" fill="#FFC29E"/>
<path d="M546.343 176.926C551.288 182.107 555.692 187.779 559.486 193.853C567.733 191.374 575.747 188.178 583.438 184.301C577.818 177.777 571.643 171.754 564.981 166.298C559.144 170.462 552.899 174.023 546.343 176.926Z" fill="#FFC29E"/>
<path d="M592.662 140.518C589.688 144.025 586.501 147.523 583.076 150.948C579.979 154.044 576.702 157.059 573.219 159.983C580.24 165.879 586.744 172.363 592.662 179.365C602.613 173.667 612.09 167.177 621 159.958C613.144 153.571 604.84 147.755 596.153 142.554C595.06 141.881 593.886 141.207 592.662 140.518Z" fill="#FFC29E"/>
<path d="M461.033 272.247C458.142 275.713 455.111 279.006 451.998 282.103C448.581 285.519 445.081 288.673 441.582 291.679C442.261 292.873 442.935 294.028 443.603 295.145C448.807 303.832 454.623 312.138 461.008 319.998C467.393 312.138 473.21 303.832 478.414 295.145C479.087 294.023 479.766 292.859 480.451 291.655C473.44 285.747 466.944 279.255 461.033 272.247Z" fill="#FFC29E"/>
<path d="M583.454 135.606C575.765 131.734 567.753 128.539 559.51 126.054C555.707 132.112 551.304 137.772 546.368 142.949C552.915 145.85 559.152 149.408 564.981 153.568C571.643 148.123 577.824 142.113 583.454 135.606Z" fill="#FFC29E"/>
<path d="M392.684 274.169C392.857 275.541 393.038 276.879 393.227 278.177C394.709 288.193 396.905 298.09 399.798 307.793C408.704 302.976 417.255 297.527 425.384 291.49C426.425 290.718 427.49 289.897 428.58 289.026C424.355 280.876 420.832 272.38 418.049 263.632C409.908 267.856 401.423 271.381 392.684 274.169Z" fill="#FFC29E"/>
<path d="M381.16 151.679C375.77 153.945 370.61 156.723 365.751 159.974C370.613 163.226 375.776 166.003 381.168 168.27C382.097 168.656 383.017 169 383.945 169.337C388.418 165.715 393.261 162.573 398.393 159.966C393.267 157.357 388.43 154.216 383.961 150.595C383.033 150.94 382.105 151.293 381.16 151.679Z" fill="#FFC29E"/>
<path d="M346.793 228.315C349.569 219.567 353.086 211.071 357.307 202.921C348.568 200.138 340.08 196.622 331.934 192.408C331.112 193.492 330.291 194.568 329.47 195.619C323.435 203.751 317.989 212.303 313.173 221.211C322.88 224.102 332.781 226.298 342.801 227.782C344.099 227.97 345.421 228.151 346.793 228.315Z" fill="#FFC29E"/>
<path d="M346.801 91.6333C345.355 91.814 343.943 92.0111 342.579 92.2082C332.635 93.7034 322.808 95.899 313.173 98.7787C317.989 107.688 323.438 116.241 329.478 124.371C330.25 125.411 331.071 126.476 331.942 127.566C340.083 123.339 348.569 119.811 357.307 117.02C353.093 108.87 349.579 100.377 346.801 91.6333Z" fill="#FFC29E"/>
<path d="M329.346 179.439C335.259 172.428 341.755 165.93 348.764 160.015C341.741 154.102 335.236 147.598 329.322 140.575C328.131 141.257 326.964 141.93 325.855 142.595C317.165 147.799 308.859 153.617 301 160.007C308.862 166.391 317.168 172.207 325.855 177.411C326.973 178.035 328.172 178.716 329.346 179.439Z" fill="#FFC29E"/>
<path d="M338.587 184.318C346.278 188.178 354.289 191.363 362.531 193.837C366.329 187.775 370.732 182.115 375.673 176.943C369.125 174.055 362.889 170.508 357.06 166.356C350.398 171.801 344.217 177.811 338.587 184.318Z" fill="#FFC29E"/>
<path d="M375.69 142.998C370.749 137.819 366.346 132.153 362.547 126.087C354.298 128.567 346.279 131.755 338.579 135.614C344.21 142.131 350.396 148.146 357.069 153.593C362.9 149.439 369.139 145.889 375.69 142.998Z" fill="#FFC29E"/>
<path d="M499.236 230.557C499.236 229.539 499.236 228.545 499.17 227.56C494.115 224.817 489.363 221.55 484.993 217.811C484.549 223.554 483.498 229.233 481.855 234.754C482.529 235.469 483.202 236.192 483.917 236.906C488.071 241.02 492.61 244.728 497.47 247.977C498.614 242.24 499.205 236.407 499.236 230.557Z" fill="#FFC29E"/>
<path d="M413.154 98.8526C412.25 98.4419 411.347 98.0313 410.41 97.6453C404.994 95.4315 399.377 93.7455 393.637 92.6107C394.775 98.3475 396.464 103.961 398.681 109.374C399.067 110.31 399.502 111.205 399.88 112.1C405.612 112.7 411.264 113.903 416.743 115.689C414.957 110.219 413.754 104.576 413.154 98.8526Z" fill="#FFC29E"/>
<path d="M484.977 102.105C489.354 98.375 494.111 95.1156 499.17 92.3806C499.211 91.4033 499.244 90.4177 499.244 89.4075C499.211 83.5602 498.617 77.7296 497.47 71.9958C492.606 75.2381 488.068 78.943 483.917 83.0588C483.194 83.7815 482.521 84.5043 481.847 85.2271C483.476 90.7285 484.525 96.3852 484.977 102.105Z" fill="#FFC29E"/>
<path d="M392.011 81.95C399.074 83.1407 405.998 85.0449 412.677 87.6335C412.844 80.4712 413.736 73.3443 415.338 66.3616C407.752 62.2861 399.822 58.8838 391.641 56.1938C391.018 64.7737 391.142 73.3915 392.011 81.95Z" fill="#FFC29E"/>
<path d="M528.396 227.313C527.257 221.578 525.571 215.964 523.361 210.55C522.975 209.614 522.539 208.719 522.153 207.824C516.424 207.225 510.774 206.022 505.298 204.235C507.082 209.705 508.282 215.349 508.879 221.071C509.783 221.482 510.686 221.893 511.631 222.279C517.044 224.492 522.659 226.178 528.396 227.313Z" fill="#FFC29E"/>
<path d="M391.666 263.722C399.838 261.031 407.759 257.632 415.339 253.562C413.732 246.589 412.84 239.47 412.677 232.315C406.005 234.897 399.09 236.799 392.035 237.99C391.171 246.541 391.047 255.15 391.666 263.722Z" fill="#FFC29E"/>
<path d="M413.145 221.088C413.749 215.36 414.952 209.711 416.735 204.235C411.266 206.015 405.625 207.215 399.905 207.815C399.494 208.719 399.083 209.622 398.697 210.567C396.487 215.981 394.801 221.594 393.662 227.33C399.398 226.191 405.012 224.505 410.427 222.295C411.355 221.909 412.258 221.498 413.145 221.088Z" fill="#FFC29E"/>
<path d="M388.66 111.624C386.073 104.952 384.171 98.0335 382.984 90.9763C374.429 90.1184 365.817 89.9975 357.241 90.6149C359.939 98.7846 363.341 106.704 367.41 114.285C374.385 112.683 381.505 111.791 388.66 111.624Z" fill="#FFC29E"/>
<path d="M381.628 80.6032C380.852 71.4703 380.852 62.2879 381.628 53.155C370.563 50.1555 359.277 48.0408 347.877 46.831C349.083 58.2394 351.2 69.5329 354.21 80.6032C363.333 79.8268 372.505 79.8268 381.628 80.6032Z" fill="#FFC29E"/>
<path d="M367.41 205.639C363.335 213.226 359.929 221.155 357.233 229.334C365.816 229.952 374.438 229.829 383 228.964C384.191 221.902 386.095 214.978 388.684 208.3C381.521 208.137 374.393 207.246 367.41 205.639Z" fill="#FFC29E"/>
<path d="M530.367 56.2431C522.198 58.934 514.28 62.3335 506.703 66.4027C508.305 73.3771 509.197 80.4958 509.364 87.6499C516.034 85.0631 522.95 83.1616 530.006 81.9747C530.868 73.424 530.989 64.8147 530.367 56.2431Z" fill="#FFC29E"/>
<path d="M422.797 89.3665C422.797 90.3849 422.797 91.3787 422.862 92.3643C427.919 95.1087 432.674 98.3762 437.048 102.113C437.489 96.3705 438.538 90.6908 440.177 85.1696C439.512 84.4468 438.839 83.7323 438.124 83.0178C433.972 78.904 429.433 75.1992 424.571 71.9548C423.42 77.688 422.826 83.519 422.797 89.3665Z" fill="#FFC29E"/>
<path d="M564.816 90.5902C556.227 89.9717 547.601 90.0953 539.033 90.9598C537.845 98.0221 535.943 104.946 533.357 111.624C540.523 111.787 547.654 112.679 554.639 114.285C558.714 106.698 562.12 98.7694 564.816 90.5902Z" fill="#FFC29E"/>
<path d="M523.344 109.357C525.556 103.944 527.239 98.3306 528.371 92.5942C522.635 93.7341 517.021 95.42 511.606 97.6288C510.678 98.0149 509.775 98.4501 508.879 98.8361C508.281 104.564 507.081 110.213 505.298 115.689C510.766 113.9 516.407 112.695 522.129 112.092C522.539 111.197 522.95 110.293 523.344 109.357Z" fill="#FFC29E"/>
<path d="M549.045 196.424C545.8 191.553 542.089 187.009 537.965 182.856C537.25 182.133 536.527 181.46 535.805 180.786C530.286 182.418 524.612 183.467 518.875 183.915C522.623 188.288 525.897 193.045 528.642 198.108C529.628 198.108 530.613 198.182 531.615 198.182C537.468 198.152 543.305 197.564 549.045 196.424Z" fill="#FFC29E"/>
<path d="M540.413 239.321C541.193 248.459 541.193 257.647 540.413 266.785C551.474 269.78 562.758 271.881 574.156 273.068C572.953 261.657 570.838 250.361 567.831 239.288C558.709 240.08 549.536 240.09 540.413 239.321Z" fill="#FFC29E"/>
<path d="M530.03 237.974C522.964 236.784 516.037 234.88 509.356 232.29C509.197 239.456 508.305 246.586 506.694 253.571C514.282 257.646 522.211 261.051 530.392 263.747C531.013 255.161 530.892 246.538 530.03 237.974Z" fill="#FFC29E"/>
<path d="M533.373 208.3C535.963 214.972 537.868 221.89 539.057 228.948C547.609 229.806 556.219 229.927 564.792 229.309C562.097 221.14 558.697 213.22 554.631 205.639C547.653 207.241 540.531 208.133 533.373 208.3Z" fill="#FFC29E"/>
<path d="M437.064 217.811C432.687 221.56 427.923 224.833 422.854 227.576C422.854 228.562 422.797 229.547 422.797 230.557C422.826 236.405 423.42 242.236 424.571 247.969C429.432 244.733 433.971 241.036 438.124 236.931C438.839 236.208 439.52 235.485 440.194 234.763C438.557 229.238 437.508 223.556 437.064 217.811Z" fill="#FFC29E"/>
<path d="M531.624 121.742C530.605 121.742 529.603 121.742 528.617 121.808C525.872 126.866 522.601 131.62 518.859 135.992C524.605 136.436 530.287 137.485 535.813 139.121C536.536 138.456 537.258 137.783 537.965 137.068C542.084 132.916 545.795 128.378 549.045 123.516C543.309 122.366 537.474 121.772 531.624 121.742Z" fill="#FFC29E"/>
<path d="M540.388 80.5785C549.527 79.8021 558.716 79.8021 567.856 80.5785C570.856 69.5158 572.966 58.2305 574.164 46.831C562.752 48.0404 551.455 50.1579 540.38 53.1633C541.155 62.2851 541.158 71.4562 540.388 80.5785Z" fill="#FFC29E"/>
<path d="M390.417 121.742C384.569 121.775 378.738 122.369 373.004 123.516C376.249 128.378 379.954 132.916 384.068 137.068C384.783 137.783 385.514 138.464 386.236 139.138C391.751 137.502 397.423 136.453 403.157 136.009C399.413 131.634 396.139 126.877 393.391 121.816C392.413 121.775 391.42 121.742 390.417 121.742Z" fill="#FFC29E"/>
<path d="M381.653 239.345C372.519 240.122 363.336 240.122 354.202 239.345C351.197 250.399 349.085 261.676 347.885 273.068C359.297 271.858 370.594 269.741 381.669 266.736C380.885 257.623 380.879 248.46 381.653 239.345Z" fill="#FFC29E"/>
<path d="M390.417 198.182C391.436 198.182 392.422 198.182 393.416 198.116C396.159 193.059 399.427 188.305 403.166 183.932C397.423 183.484 391.743 182.432 386.22 180.794C385.497 181.468 384.783 182.141 384.068 182.856C379.954 187.01 376.246 191.548 372.996 196.408C378.732 197.558 384.567 198.153 390.417 198.182Z" fill="#FFC29E"/>
<path d="M430.148 198.428L430.009 198.51C427.503 203.645 425.636 209.068 424.448 214.657C429.178 211.363 433.487 207.501 437.278 203.159C434.768 201.792 432.383 200.209 430.148 198.428Z" fill="#FFC29E"/>
<path d="M412.004 165.337L411.831 165.296C406.435 167.16 401.285 169.673 396.496 172.779C402.154 173.803 407.917 174.129 413.655 173.748C412.86 170.998 412.308 168.184 412.004 165.337Z" fill="#FFC29E"/>
<path d="M412.004 154.586C412.309 151.741 412.859 148.927 413.647 146.176L413.515 146.078C407.81 145.734 402.083 146.087 396.463 147.129C401.255 150.247 406.41 152.765 411.815 154.628L412.004 154.586Z" fill="#FFC29E"/>
<path d="M417.614 136.222H417.786C419.164 133.71 420.761 131.324 422.559 129.093L422.468 128.945C417.322 126.437 411.888 124.569 406.287 123.385C409.525 128.11 413.329 132.421 417.614 136.222Z" fill="#FFC29E"/>
<path d="M430.165 121.504C432.395 119.712 434.778 118.118 437.286 116.741V116.568C433.495 112.29 429.195 108.492 424.481 105.259C425.661 110.853 427.523 116.281 430.025 121.422L430.165 121.504Z" fill="#FFC29E"/>
<path d="M447.225 112.618C449.977 111.83 452.791 111.281 455.636 110.975L455.685 110.794C453.815 105.383 451.291 100.22 448.17 95.4195C447.12 101.049 446.767 106.787 447.118 112.503C447.152 112.543 447.187 112.581 447.225 112.618Z" fill="#FFC29E"/>
<path d="M447.225 207.364L447.127 207.479C446.786 213.187 447.142 218.915 448.186 224.537C451.301 219.742 453.819 214.584 455.685 209.179C455.685 209.13 455.685 209.08 455.685 209.023C452.822 208.722 449.99 208.167 447.225 207.364Z" fill="#FFC29E"/>
<path d="M474.824 207.364C472.068 208.155 469.248 208.705 466.397 209.006L466.347 209.162C468.218 214.574 470.741 219.737 473.863 224.537C474.912 218.91 475.268 213.176 474.923 207.462L474.824 207.364Z" fill="#FFC29E"/>
<path d="M484.755 203.2V203.356C488.532 207.625 492.819 211.415 497.519 214.641C496.299 209.031 494.395 203.591 491.852 198.444C489.627 200.231 487.253 201.822 484.755 203.2Z" fill="#FFC29E"/>
<path d="M504.255 183.702C502.873 186.21 501.279 188.595 499.491 190.831L499.564 190.962C504.698 193.463 510.119 195.328 515.705 196.514C512.43 191.788 508.585 187.485 504.255 183.702Z" fill="#FFC29E"/>
<path d="M510.202 165.296L510.037 165.337C509.735 168.186 509.186 171.003 508.395 173.756L508.518 173.846C514.223 174.19 519.95 173.837 525.57 172.795C520.774 169.675 515.613 167.156 510.202 165.296Z" fill="#FFC29E"/>
<path d="M510.037 154.587H510.201C515.614 152.721 520.778 150.2 525.578 147.08C519.948 146.031 514.21 145.676 508.493 146.02L508.37 146.119C509.172 148.887 509.73 151.721 510.037 154.587Z" fill="#FFC29E"/>
<path d="M499.491 129.118C501.278 131.347 502.87 133.727 504.246 136.23H504.411C508.677 132.447 512.467 128.158 515.697 123.459C510.083 124.674 504.64 126.575 499.491 129.118Z" fill="#FFC29E"/>
<path d="M491.876 121.504C491.925 121.469 491.978 121.439 492.032 121.414C494.531 116.28 496.393 110.86 497.577 105.275C492.845 108.567 488.535 112.429 484.747 116.773C487.257 118.139 489.642 119.722 491.876 121.504Z" fill="#FFC29E"/>
<path d="M474.799 112.618C474.838 112.576 474.873 112.532 474.906 112.486C475.25 106.778 474.897 101.05 473.855 95.4277C470.739 100.221 468.218 105.376 466.347 110.778C466.347 110.844 466.347 110.901 466.405 110.959C469.245 111.27 472.054 111.825 474.799 112.618Z" fill="#FFC29E"/>
<path d="M461.016 200.292C483.286 200.292 501.339 182.241 501.339 159.974C501.339 137.707 483.286 119.656 461.016 119.656C438.747 119.656 420.694 137.707 420.694 159.974C420.694 182.241 438.747 200.292 461.016 200.292Z" fill="#FFC29E"/>
<path d="M417.778 183.694H417.622C413.348 187.492 409.55 191.794 406.311 196.506C411.903 195.314 417.329 193.444 422.468 190.938C422.492 190.887 422.52 190.837 422.55 190.79C420.754 188.569 419.157 186.195 417.778 183.694Z" fill="#FFC29E"/>
<path d="M461.016 200.292C483.286 200.292 501.339 182.241 501.339 159.974C501.339 137.707 483.286 119.656 461.016 119.656C438.747 119.656 420.694 137.707 420.694 159.974C420.694 182.241 438.747 200.292 461.016 200.292Z" fill="#FFC29E"/>
<path d="M63.65 466.153C63.6581 466.879 63.521 467.599 63.2469 468.271C62.9729 468.943 62.5673 469.554 62.0541 470.067C61.5408 470.58 60.9302 470.986 60.2581 471.26C59.5859 471.534 58.8658 471.671 58.14 471.663H5.5C4.0412 471.658 2.64381 471.075 1.61322 470.043C0.582626 469.01 0.0026332 467.612 0 466.153V390.723C0.0026332 389.264 0.582626 387.866 1.61322 386.833C2.64381 385.801 4.0412 385.218 5.5 385.213H57.04C57.7902 385.168 58.5417 385.276 59.2483 385.532C59.9549 385.788 60.6017 386.186 61.1489 386.701C61.696 387.216 62.132 387.838 62.4301 388.528C62.7281 389.218 62.8818 389.961 62.8818 390.713C62.8818 391.464 62.7281 392.208 62.4301 392.898C62.132 393.588 61.696 394.21 61.1489 394.725C60.6017 395.24 59.9549 395.638 59.2483 395.894C58.5417 396.149 57.7902 396.258 57.04 396.213H11.04V422.763H51.79C53.2488 422.768 54.6462 423.351 55.6768 424.383C56.7074 425.416 57.2874 426.814 57.29 428.273C57.2967 428.997 57.159 429.716 56.8851 430.387C56.6112 431.058 56.2065 431.667 55.6945 432.18C55.1826 432.693 54.5737 433.099 53.9034 433.374C53.233 433.649 52.5146 433.788 51.79 433.783H11.01V460.653H58.14C58.865 460.645 59.5843 460.782 60.2557 461.055C60.9272 461.328 61.5374 461.733 62.0505 462.245C62.5636 462.757 62.9694 463.367 63.244 464.038C63.5187 464.709 63.6567 465.428 63.65 466.153Z" fill="#BCBCBC"/>
<path d="M143.71 471.993C142.605 472.006 141.522 471.687 140.6 471.077C139.678 470.467 138.961 469.595 138.54 468.573L107.04 392.373C106.485 391.015 106.491 389.492 107.058 388.139C107.626 386.786 108.707 385.714 110.065 385.158C111.423 384.602 112.946 384.609 114.299 385.176C115.652 385.743 116.725 386.825 117.28 388.183L143.71 452.063L170.14 388.183C170.412 387.515 170.814 386.907 171.321 386.395C171.829 385.882 172.432 385.475 173.097 385.196C173.763 384.918 174.476 384.773 175.197 384.771C175.919 384.768 176.633 384.908 177.3 385.183C177.974 385.447 178.588 385.844 179.106 386.35C179.624 386.856 180.034 387.461 180.314 388.129C180.594 388.796 180.737 389.513 180.734 390.237C180.732 390.961 180.584 391.677 180.3 392.343L148.8 468.543C148.394 469.561 147.692 470.434 146.785 471.049C145.877 471.664 144.806 471.993 143.71 471.993Z" fill="#BCBCBC"/>
<path d="M287.32 466.153C287.328 466.879 287.191 467.599 286.917 468.271C286.643 468.943 286.237 469.554 285.724 470.067C285.211 470.58 284.6 470.986 283.928 471.26C283.256 471.534 282.536 471.671 281.81 471.663H229.17C227.711 471.658 226.314 471.075 225.283 470.043C224.253 469.01 223.673 467.612 223.67 466.153V390.723C223.673 389.264 224.253 387.866 225.283 386.833C226.314 385.801 227.711 385.218 229.17 385.213H280.71C281.46 385.168 282.212 385.276 282.918 385.532C283.625 385.788 284.272 386.186 284.819 386.701C285.366 387.216 285.802 387.838 286.1 388.528C286.398 389.218 286.552 389.961 286.552 390.713C286.552 391.464 286.398 392.208 286.1 392.898C285.802 393.588 285.366 394.21 284.819 394.725C284.272 395.24 283.625 395.638 282.918 395.894C282.212 396.149 281.46 396.258 280.71 396.213H234.71V422.763H275.39C276.849 422.768 278.246 423.351 279.277 424.383C280.308 425.416 280.888 426.814 280.89 428.273C280.897 428.997 280.759 429.716 280.485 430.387C280.211 431.058 279.807 431.667 279.295 432.18C278.783 432.693 278.174 433.099 277.504 433.374C276.833 433.649 276.115 433.788 275.39 433.783H234.68V460.653H281.81C282.535 460.645 283.254 460.782 283.926 461.055C284.597 461.328 285.207 461.733 285.721 462.245C286.234 462.757 286.639 463.367 286.914 464.038C287.189 464.709 287.327 465.428 287.32 466.153Z" fill="#BCBCBC"/>
<path d="M398.77 472.103C397.954 472.086 397.15 471.899 396.41 471.555C395.67 471.211 395.009 470.716 394.47 470.103L341.28 406.103V466.463C341.325 467.213 341.217 467.965 340.961 468.671C340.705 469.378 340.307 470.025 339.792 470.572C339.277 471.119 338.655 471.555 337.965 471.853C337.275 472.151 336.532 472.305 335.78 472.305C335.028 472.305 334.285 472.151 333.595 471.853C332.905 471.555 332.283 471.119 331.768 470.572C331.253 470.025 330.855 469.378 330.599 468.671C330.343 467.965 330.235 467.213 330.28 466.463V390.943C330.275 389.815 330.619 388.713 331.264 387.787C331.909 386.862 332.824 386.158 333.884 385.772C334.944 385.386 336.097 385.336 337.187 385.63C338.276 385.924 339.248 386.546 339.97 387.413L393.27 451.283V391.053C393.263 390.328 393.401 389.608 393.676 388.937C393.95 388.265 394.356 387.655 394.869 387.142C395.382 386.629 395.992 386.223 396.664 385.949C397.335 385.674 398.055 385.536 398.78 385.543C400.239 385.548 401.636 386.131 402.667 387.163C403.697 388.196 404.277 389.594 404.28 391.053V466.593C404.249 467.717 403.888 468.807 403.243 469.728C402.598 470.649 401.696 471.36 400.65 471.773C400.045 471.981 399.41 472.092 398.77 472.103Z" fill="#BCBCBC"/>
<path d="M517.6 390.723C517.606 391.447 517.467 392.166 517.191 392.836C516.916 393.507 516.51 394.116 515.998 394.627C515.485 395.139 514.875 395.544 514.204 395.818C513.533 396.092 512.815 396.23 512.09 396.223H487.97V466.223C487.968 467.682 487.388 469.08 486.357 470.113C485.326 471.145 483.929 471.728 482.47 471.733C481.744 471.741 481.024 471.604 480.352 471.33C479.68 471.056 479.069 470.65 478.556 470.137C478.043 469.624 477.637 469.013 477.363 468.341C477.089 467.669 476.952 466.949 476.96 466.223V396.223H452.73C451.329 396.138 450.013 395.522 449.05 394.5C448.088 393.478 447.552 392.127 447.552 390.723C447.552 389.319 448.088 387.968 449.05 386.946C450.013 385.924 451.329 385.307 452.73 385.223H512.09C512.815 385.216 513.533 385.354 514.204 385.628C514.875 385.902 515.485 386.306 515.998 386.818C516.51 387.33 516.916 387.939 517.191 388.609C517.467 389.28 517.606 389.998 517.6 390.723Z" fill="#BCBCBC"/>
<path d="M592.6 473.093C568.7 473.093 561.98 461.863 561.21 460.543C560.525 459.255 560.371 457.749 560.782 456.349C561.194 454.949 562.137 453.766 563.41 453.053C564.671 452.374 566.146 452.213 567.523 452.603C568.901 452.993 570.073 453.904 570.79 455.143C571.949 456.515 573.375 457.638 574.98 458.443C580.48 461.443 587.64 462.083 592.6 462.083C599.86 462.083 605.37 460.543 608.45 457.673C609.405 456.813 610.166 455.761 610.683 454.585C611.2 453.409 611.461 452.137 611.45 450.853C611.541 449.054 611.244 447.256 610.578 445.582C609.911 443.908 608.893 442.398 607.59 441.153C604.18 437.743 598.23 435.213 589.86 433.563C584.332 432.472 579.062 430.341 574.33 427.283C570.93 424.985 568.107 421.932 566.08 418.363C563.978 414.79 562.873 410.718 562.88 406.573C562.947 403.551 563.65 400.578 564.945 397.847C566.239 395.116 568.094 392.688 570.39 390.723C572.843 388.547 575.682 386.851 578.76 385.723C582.176 384.536 585.774 383.954 589.39 384.003C610.87 384.003 617.14 394.133 617.8 395.343C618.486 396.596 618.656 398.068 618.273 399.444C617.89 400.821 616.985 401.993 615.75 402.712C614.515 403.43 613.048 403.638 611.662 403.291C610.276 402.944 609.08 402.069 608.33 400.853C607.279 399.713 606.054 398.748 604.7 397.993C602.06 396.663 597.32 394.993 589.39 394.993C583.39 394.993 579.7 397.083 577.61 398.993C576.479 399.967 575.562 401.164 574.916 402.51C574.271 403.856 573.911 405.321 573.86 406.813V407.033C573.922 409.304 574.614 411.513 575.86 413.413C577.139 415.466 578.87 417.2 580.92 418.483C584.345 420.565 588.114 422.018 592.05 422.773C602.62 424.863 610.22 428.283 615.28 433.243C617.625 435.527 619.472 438.271 620.704 441.304C621.937 444.336 622.528 447.591 622.44 450.863C622.45 453.676 621.878 456.461 620.759 459.043C619.641 461.624 618 463.946 615.94 465.863C610.77 470.673 602.84 473.093 592.6 473.093Z" fill="#BCBCBC"/>
<path d="M809.55 449.743C809.216 453.64 808.09 457.427 806.24 460.873C804.553 463.698 802.21 466.075 799.41 467.803C794.879 470.49 789.675 471.829 784.41 471.663H745.75C744.315 471.672 742.933 471.119 741.9 470.123C740.862 469.047 740.273 467.617 740.25 466.123V390.723C740.253 389.264 740.833 387.866 741.863 386.833C742.894 385.801 744.291 385.218 745.75 385.213H779.39C782.92 385.213 788.2 385.433 793.05 387.853C797.67 390.063 803.4 394.793 804.61 405.033C805.159 408.743 804.972 412.525 804.06 416.163C803.267 419.123 801.883 421.892 799.99 424.303C799.588 424.679 799.217 425.087 798.88 425.523C803.495 428.196 806.92 432.526 808.46 437.633C809.581 441.565 809.951 445.674 809.55 449.743ZM795.45 436.643C793.312 434.735 790.677 433.473 787.85 433.003C786.399 432.736 784.924 432.625 783.45 432.673H783.12L764.84 432.783H764.73C763.283 432.743 761.906 432.151 760.882 431.128C759.857 430.105 759.263 428.73 759.22 427.283C759.223 425.822 759.804 424.422 760.837 423.39C761.87 422.357 763.27 421.776 764.73 421.773L782.79 421.663C783.79 421.553 788.51 420.783 791.49 417.263C793.49 414.723 794.24 410.983 793.69 406.353C792.81 399.203 788.69 396.223 779.37 396.223H751.29V460.653H784.44C787.634 460.79 790.802 460.024 793.58 458.443C796.58 456.683 798.09 453.443 798.58 448.753C799.08 443.363 797.98 439.283 795.45 436.643Z" fill="#BCBCBC"/>
<path d="M921.88 393.803L893.13 436.753V466.263C893.127 467.722 892.548 469.12 891.517 470.153C890.486 471.185 889.089 471.768 887.63 471.773C886.175 471.752 884.786 471.165 883.757 470.136C882.728 469.107 882.141 467.718 882.12 466.263V436.753L853.49 393.803C852.695 392.569 852.412 391.075 852.699 389.636C852.986 388.197 853.822 386.926 855.03 386.093C856.243 385.291 857.724 385.003 859.149 385.292C860.573 385.58 861.825 386.422 862.63 387.633L887.63 425.193L912.74 387.633C913.543 386.423 914.793 385.581 916.217 385.292C917.64 385.004 919.119 385.292 920.33 386.093C921.541 386.923 922.381 388.193 922.671 389.633C922.96 391.073 922.676 392.569 921.88 393.803Z" fill="#BCBCBC"/>
<path d="M119.16 644.143C116.985 644.109 114.909 643.23 113.371 641.692C111.832 640.154 110.954 638.078 110.92 635.903V548.063L70.39 603.603C69.6425 604.647 68.6517 605.493 67.5034 606.068C66.3551 606.644 65.084 606.93 63.8 606.903C62.4948 606.913 61.205 606.62 60.032 606.048C58.8591 605.475 57.8349 604.638 57.04 603.603L16.48 548.063V635.903C16.4721 638.086 15.6014 640.177 14.0578 641.721C12.5142 643.264 10.423 644.135 8.24002 644.143C6.06509 644.109 3.98862 643.23 2.45053 641.692C0.912439 640.154 0.0335259 638.078 0 635.903V522.843C0.00416127 521.095 0.558763 519.393 1.58505 517.978C2.61134 516.563 4.05719 515.507 5.71744 514.96C7.37768 514.413 9.16796 514.403 10.8342 514.932C12.5004 515.46 13.958 516.499 15 517.903L63.78 584.813L112.57 517.903C113.592 516.493 115.037 515.445 116.696 514.912C118.354 514.379 120.139 514.389 121.791 514.94C123.443 515.491 124.877 516.554 125.884 517.975C126.891 519.396 127.418 521.101 127.39 522.843V635.903C127.382 638.084 126.513 640.174 124.971 641.717C123.43 643.26 121.341 644.132 119.16 644.143Z" fill="#BCBCBC"/>
<path d="M258.6 647.603C249.531 647.615 240.556 645.766 232.23 642.173C224.167 638.771 216.836 633.844 210.64 627.663C204.52 621.482 199.6 614.219 196.13 606.243C192.665 598.054 190.874 589.255 190.86 580.363C190.838 571.411 192.691 562.555 196.3 554.363C199.769 546.394 204.751 539.174 210.97 533.103C217.169 526.928 224.499 522.006 232.56 518.603C240.97 515.117 249.986 513.322 259.09 513.323C272.229 513.356 285.064 517.281 295.974 524.604C306.885 531.926 315.381 542.316 320.39 554.463C323.804 562.658 325.541 571.455 325.5 580.333C325.543 598.021 318.616 615.015 306.22 627.633C300.023 633.979 292.615 639.017 284.435 642.447C276.255 645.877 267.47 647.631 258.6 647.603ZM259.09 529.763C252.189 529.766 245.357 531.125 238.98 533.763C232.819 536.315 227.22 540.052 222.5 544.763C217.745 549.319 213.998 554.82 211.5 560.913C208.741 567.023 207.338 573.659 207.39 580.363C207.39 586.997 208.718 593.564 211.294 599.678C213.87 605.792 217.642 611.329 222.39 615.963C228.237 621.948 235.478 626.389 243.464 628.888C251.45 631.386 259.931 631.864 268.147 630.278C276.363 628.692 284.057 625.093 290.539 619.802C297.022 614.511 302.09 607.694 305.29 599.963C307.778 593.72 309.064 587.063 309.08 580.343C309.169 567.052 304.017 554.261 294.74 544.743C290.122 539.962 284.581 536.169 278.453 533.594C272.324 531.019 265.737 529.716 259.09 529.763Z" fill="#BCBCBC"/>
<path d="M436.93 646.783C401.17 646.783 391.11 629.973 389.93 627.993C388.905 626.064 388.676 623.81 389.293 621.714C389.909 619.619 391.323 617.848 393.23 616.783C395.114 615.783 397.312 615.551 399.363 616.137C401.414 616.722 403.158 618.079 404.23 619.923C405.964 621.973 408.093 623.653 410.49 624.863C418.73 629.313 429.49 630.303 436.86 630.303C447.74 630.303 455.98 627.993 460.59 623.713C462.012 622.42 463.144 620.841 463.912 619.079C464.681 617.318 465.069 615.414 465.05 613.493C465.05 607.393 463.23 602.783 459.28 598.993C454.17 593.883 445.28 590.093 432.74 587.613C423.68 585.613 415.74 582.503 409.5 578.223C404.407 574.784 400.177 570.216 397.14 564.873C394.012 559.525 392.372 553.438 392.39 547.243C392.482 542.71 393.532 538.248 395.471 534.149C397.41 530.051 400.194 526.409 403.64 523.463C407.322 520.236 411.571 517.72 416.17 516.043C421.309 514.236 426.724 513.346 432.17 513.413C464.31 513.413 473.7 528.573 474.69 530.413C475.748 532.317 476.013 534.562 475.427 536.661C474.841 538.759 473.452 540.542 471.56 541.623C469.696 542.65 467.506 542.911 465.452 542.351C463.399 541.791 461.645 540.454 460.56 538.623C458.986 536.916 457.15 535.471 455.12 534.343C451.17 532.343 444.12 529.893 432.21 529.893C423.15 529.893 417.71 533.023 414.58 535.823C412.888 537.282 411.515 539.076 410.55 541.091C409.584 543.106 409.047 545.3 408.97 547.533V547.863C409.068 551.262 410.106 554.568 411.97 557.413C413.886 560.485 416.478 563.078 419.55 564.993C423.84 567.803 429.44 569.943 436.2 571.423C452.02 574.553 463.39 579.663 470.97 587.083C478.06 594.003 481.69 602.903 481.69 613.453C481.697 617.657 480.836 621.817 479.162 625.673C477.488 629.528 475.036 632.998 471.96 635.863C464.13 643.153 452.26 646.783 436.93 646.783Z" fill="#BCBCBC"/>
<path d="M553.29 644.803C551.892 644.802 550.517 644.445 549.295 643.766C548.072 643.088 547.043 642.11 546.302 640.924C545.561 639.739 545.134 638.384 545.06 636.988C544.986 635.592 545.268 634.2 545.88 632.943L600.76 519.883C601.456 518.508 602.516 517.351 603.825 516.536C605.133 515.722 606.639 515.281 608.18 515.263C609.724 515.26 611.238 515.692 612.548 516.509C613.859 517.326 614.913 518.495 615.59 519.883L670.8 632.773C671.761 634.74 671.902 637.008 671.192 639.078C670.481 641.148 668.977 642.852 667.01 643.813C665.044 644.774 662.776 644.915 660.705 644.204C658.635 643.494 656.932 641.99 655.97 640.023L643.12 613.463C634.207 610.975 624.831 610.632 615.76 612.463C605.91 614.344 596.404 617.716 587.57 622.463C577.248 627.959 567.623 634.674 558.9 642.463C557.401 643.935 555.391 644.773 553.29 644.803ZM608.18 542.293L575.05 610.693C576.53 609.863 578.05 609.043 579.66 608.223C589.98 602.583 601.112 598.579 612.66 596.353C619.715 594.999 626.921 594.609 634.08 595.193L608.18 542.293Z" fill="#BCBCBC"/>
<path d="M736.74 644.803C734.556 644.798 732.463 643.928 730.919 642.384C729.375 640.84 728.505 638.747 728.5 636.563V523.463C728.534 521.288 729.412 519.211 730.951 517.673C732.489 516.135 734.565 515.256 736.74 515.223C738.923 515.231 741.014 516.101 742.558 517.645C744.101 519.189 744.972 521.28 744.98 523.463V636.563C744.991 637.648 744.785 638.724 744.375 639.729C743.964 640.733 743.358 641.646 742.59 642.413C741.823 643.181 740.91 643.787 739.906 644.197C738.901 644.608 737.825 644.814 736.74 644.803Z" fill="#BCBCBC"/>
<path d="M876.99 646.953C867.868 646.976 858.837 645.125 850.46 641.513C842.472 638.063 835.203 633.145 829.03 627.013C822.829 620.897 817.901 613.614 814.53 605.583C810.986 597.419 809.191 588.603 809.26 579.703C809.213 570.88 810.955 562.139 814.383 554.009C817.81 545.879 822.851 538.529 829.2 532.403C842.006 519.725 859.3 512.616 877.32 512.623C891.862 512.503 906.023 517.264 917.54 526.143C918.425 526.785 919.172 527.597 919.74 528.531C920.307 529.465 920.683 530.502 920.846 531.583C921.009 532.664 920.955 533.766 920.688 534.826C920.42 535.885 919.945 536.881 919.289 537.755C918.633 538.63 917.81 539.365 916.867 539.917C915.924 540.47 914.881 540.83 913.798 540.976C912.715 541.122 911.613 541.051 910.558 540.767C909.502 540.483 908.514 539.992 907.65 539.323C898.973 532.611 888.29 529.015 877.32 529.113C867.207 529.084 857.307 532.018 848.843 537.552C840.378 543.086 833.72 550.977 829.69 560.253C827.044 566.395 825.682 573.014 825.69 579.703C825.684 586.338 827.009 592.907 829.585 599.022C832.161 605.137 835.938 610.673 840.69 615.303C845.436 620.107 851.088 623.921 857.32 626.524C863.551 629.126 870.237 630.465 876.99 630.463C882.954 630.426 888.867 629.364 894.47 627.323C899.861 625.321 904.874 622.424 909.3 618.753C910.123 618.058 911.074 617.531 912.1 617.204C913.126 616.877 914.207 616.756 915.28 616.847C916.353 616.938 917.397 617.24 918.353 617.735C919.31 618.23 920.159 618.909 920.852 619.733C921.546 620.556 922.07 621.509 922.395 622.535C922.72 623.562 922.84 624.643 922.747 625.716C922.654 626.788 922.35 627.832 921.853 628.788C921.356 629.743 920.675 630.591 919.85 631.283C914.001 636.156 907.367 640 900.23 642.653C892.805 645.473 884.933 646.929 876.99 646.953Z" fill="#BCBCBC"/>
</svg>
