<svg width="100%" height="100%" viewBox="0 0 915 915" fill="none" xmlns="http://www.w3.org/2000/svg">
<path d="M364.534 88.3801C361.414 85.9501 358.334 83.6101 355.334 81.3801C332.091 64.1336 307.645 48.5706 282.183 34.8101C273.925 62.5483 267.656 90.84 263.423 119.47C262.883 123.14 262.423 126.94 261.883 130.83C286.908 138.768 311.213 148.821 334.534 160.88C342.462 135.907 352.498 111.653 364.534 88.3801Z" fill="#FFC29E"/>
<path d="M408.734 213.36C416.993 194.653 427.128 176.832 438.984 160.17C423.429 141.132 406.258 123.473 387.664 107.39C376.637 129.372 367.533 152.268 360.454 175.82C377.776 186.668 393.952 199.246 408.734 213.36Z" fill="#FFC29E"/>
<path d="M480.945 229.06C474.47 213.648 466.53 198.894 457.235 185C447.937 198.894 440 213.652 433.535 229.07C432.425 231.73 431.435 234.36 430.465 236.99C440.826 249.785 449.812 263.634 457.275 278.31C464.724 263.654 473.697 249.825 484.045 237.05C483.055 234.4 482.055 231.74 480.945 229.06Z" fill="#FFC29E"/>
<path d="M526.855 107.26C508.236 123.365 491.045 141.051 475.475 160.12C487.35 176.798 497.499 194.64 505.765 213.37C520.562 199.231 536.759 186.633 554.105 175.77C547.013 152.191 537.895 129.269 526.855 107.26Z" fill="#FFC29E"/>
<path d="M685.537 480.94C700.929 474.474 715.663 466.544 729.538 457.26C715.648 447.96 700.893 440.023 685.477 433.56C682.817 432.46 680.177 431.46 677.547 430.49C664.757 440.841 650.91 449.814 636.237 457.26C650.906 464.711 664.75 473.687 677.537 484.04C680.147 483.06 682.807 482.06 685.537 480.94Z" fill="#FFC29E"/>
<path d="M652.537 130.86C652.017 126.72 651.467 122.69 650.897 118.8C646.663 90.3756 640.414 62.2881 632.197 34.75C606.738 48.5226 582.296 64.0955 559.056 81.35C556.056 83.56 553.056 85.88 549.936 88.29C562.007 111.589 572.073 135.874 580.026 160.88C603.301 148.835 627.559 138.792 652.537 130.86Z" fill="#FFC29E"/>
<path d="M457.225 136.46C474.137 116.395 492.728 97.8083 512.796 80.9C510.856 77.5 508.926 74.18 507.026 71C492.156 46.1777 475.53 22.4505 457.275 0C439.027 22.4537 422.405 46.1806 407.534 71C405.614 74.2 403.674 77.56 401.714 81C421.757 97.8795 440.327 116.433 457.225 136.46Z" fill="#FFC29E"/>
<path d="M433.605 685.48C440.075 700.894 448.015 715.649 457.315 729.54C466.611 715.648 474.548 700.893 481.015 685.48C482.115 682.82 483.115 680.18 484.085 677.55C473.723 664.766 464.737 650.927 457.275 636.26C449.834 650.907 440.871 664.73 430.535 677.5C431.535 680.15 432.535 682.8 433.605 685.48Z" fill="#FFC29E"/>
<path d="M549.996 826.17C553.116 828.59 556.186 830.93 559.186 833.17C582.431 850.417 606.876 865.983 632.337 879.75C640.598 852.012 646.87 823.72 651.107 795.09C651.647 791.41 652.107 787.61 652.647 783.72C627.639 775.78 603.351 765.727 580.046 753.67C572.102 778.644 562.049 802.898 549.996 826.17Z" fill="#FFC29E"/>
<path d="M505.795 701.17C497.545 719.881 487.417 737.705 475.565 754.37C491.115 773.416 508.286 791.078 526.885 807.16C537.91 785.177 547.014 762.281 554.095 738.73C536.767 727.875 520.584 715.291 505.795 701.17Z" fill="#FFC29E"/>
<path d="M387.694 807.26C406.316 791.158 423.507 773.471 439.074 754.4C427.197 737.723 417.048 719.881 408.784 701.15C393.989 715.292 377.792 727.891 360.444 738.75C367.535 762.33 376.652 785.252 387.694 807.26Z" fill="#FFC29E"/>
<path d="M783.689 652.56C787.829 652.04 791.859 651.49 795.749 650.92C824.156 646.683 852.227 640.434 879.75 632.22C865.977 606.762 850.404 582.32 833.149 559.08C830.929 556.1 828.596 553.057 826.149 549.95C802.854 562.022 778.572 572.089 753.568 580.04C765.65 603.314 775.726 627.575 783.689 652.56Z" fill="#FFC29E"/>
<path d="M783.719 261.9C775.777 286.908 765.724 311.195 753.668 334.5C778.645 342.428 802.902 352.464 826.179 364.5C828.599 361.38 830.939 358.31 833.179 355.31C850.421 332.099 865.984 307.687 879.75 282.26C852.008 273.999 823.713 267.727 795.079 263.49C791.409 262.9 787.609 262.39 783.719 261.9Z" fill="#FFC29E"/>
<path d="M701.128 505.75C715.281 520.563 727.893 536.777 738.768 554.14C762.337 547.049 785.241 537.91 807.219 526.83C791.12 508.217 773.441 491.033 754.378 475.47C737.701 487.343 719.859 497.489 701.128 505.75Z" fill="#FFC29E"/>
<path d="M833.539 401.71C825.039 411.71 815.919 421.71 806.159 431.5C797.299 440.35 787.919 448.98 778.059 457.22C798.099 474.119 816.67 492.689 833.569 512.73C861.999 496.434 889.076 477.885 914.54 457.26C892.087 439.011 868.36 422.389 843.539 407.52C840.349 405.61 836.999 403.66 833.539 401.71Z" fill="#FFC29E"/>
<path d="M457.315 778.08C449.055 787.98 440.395 797.39 431.515 806.27C421.755 816.03 411.744 825.14 401.754 833.63C403.694 837.04 405.624 840.36 407.524 843.54C422.395 868.362 439.021 892.089 457.275 914.54C475.522 892.086 492.144 868.359 507.016 843.54C508.936 840.34 510.876 836.99 512.836 833.54C492.793 816.658 474.219 798.105 457.315 778.08Z" fill="#FFC29E"/>
<path d="M807.169 387.65C785.184 376.631 762.289 367.53 738.738 360.45C727.88 377.773 715.296 393.953 701.178 408.74C719.889 416.997 737.714 427.132 754.378 438.99C773.425 423.433 791.088 406.256 807.169 387.65Z" fill="#FFC29E"/>
<path d="M261.983 783.68C262.483 787.61 262.983 791.44 263.543 795.13C267.783 823.761 274.062 852.053 282.333 879.79C307.792 866.017 332.234 850.445 355.474 833.19C358.474 830.98 361.474 828.66 364.594 826.26C352.529 802.961 342.473 778.677 334.534 753.67C311.244 765.711 286.973 775.751 261.983 783.68Z" fill="#FFC29E"/>
<path d="M229.062 433.6C213.67 440.076 198.936 448.016 185.062 457.31C198.954 466.606 213.709 474.543 229.122 481.01C231.783 482.11 234.423 483.1 237.053 484.08C249.828 473.718 263.657 464.729 278.313 457.26C263.656 449.813 249.826 440.84 237.053 430.49C234.403 431.49 231.743 432.49 229.062 433.6Z" fill="#FFC29E"/>
<path d="M130.831 652.64C138.771 627.635 148.824 603.351 160.881 580.05C135.901 572.107 111.644 562.051 88.3706 549.99C85.9439 553.117 83.6105 556.183 81.3705 559.19C64.1214 582.433 48.5549 606.878 34.79 632.34C62.532 640.598 90.8273 646.867 119.461 651.1C123.141 651.64 126.941 652.16 130.831 652.64Z" fill="#FFC29E"/>
<path d="M130.861 261.98C126.721 262.5 122.691 263.05 118.801 263.63C90.3935 267.864 62.3226 274.11 34.8 282.32C48.5727 307.778 64.1458 332.22 81.4005 355.46C83.6205 358.44 85.9372 361.483 88.3506 364.59C111.646 352.521 135.928 342.458 160.931 334.51C148.867 311.231 138.807 286.966 130.861 261.98Z" fill="#FFC29E"/>
<path d="M80.9809 512.83C97.87 492.79 116.43 474.22 136.461 457.32C116.405 440.403 97.8209 421.813 80.9109 401.75C77.5109 403.75 74.1808 405.63 71.0008 407.53C46.1765 422.397 22.4488 439.023 0 457.28C22.4521 475.53 46.1795 492.152 71.0008 507.02C74.2008 508.94 77.5309 510.88 80.9809 512.83Z" fill="#FFC29E"/>
<path d="M107.381 526.89C129.364 537.917 152.259 547.021 175.812 554.1C186.667 536.772 199.251 520.589 213.372 505.8C194.661 497.547 176.836 487.415 160.172 475.56C141.128 491.116 123.465 508.29 107.381 526.89Z" fill="#FFC29E"/>
<path d="M213.412 408.78C199.275 393.984 186.677 377.791 175.812 360.45C152.238 367.545 129.32 376.659 107.311 387.69C123.414 406.312 141.1 423.503 160.172 439.07C176.845 427.193 194.684 417.044 213.412 408.78Z" fill="#FFC29E"/>
<path d="M320.533 282.62C317.963 281.44 315.373 280.27 312.693 279.16C297.217 272.839 281.17 268.02 264.773 264.77C268.025 281.168 272.848 297.215 279.173 312.69C280.273 315.35 281.443 317.92 282.613 320.48C298.985 322.197 315.13 325.633 330.783 330.73C325.685 315.098 322.25 298.972 320.533 282.62Z" fill="#FFC29E"/>
<path d="M525.736 291.92C538.244 281.217 551.846 271.862 566.316 264.01C566.416 261.2 566.506 258.39 566.516 255.51C566.421 238.793 564.724 222.123 561.446 205.73C547.547 215.009 534.574 225.605 522.706 237.37C520.706 239.42 518.706 241.49 516.786 243.56C521.459 259.321 524.459 275.53 525.736 291.92Z" fill="#FFC29E"/>
<path d="M260.053 234.31C280.241 237.708 300.032 243.146 319.123 250.54C319.595 230.075 322.141 209.711 326.723 189.76C305.038 178.116 282.379 168.385 259.003 160.68C257.234 185.208 257.585 209.843 260.053 234.31Z" fill="#FFC29E"/>
<path d="M649.826 649.77C646.573 633.372 641.75 617.325 635.426 601.85C634.326 599.19 633.156 596.62 631.986 594.07C615.614 592.354 599.467 588.915 583.816 583.81C588.914 599.442 592.349 615.568 594.066 631.92C596.636 633.1 599.226 634.27 601.906 635.38C617.38 641.707 633.427 646.526 649.826 649.77Z" fill="#FFC29E"/>
<path d="M259.083 753.84C282.43 746.139 305.062 736.419 326.723 724.79C322.141 704.856 319.594 684.508 319.123 664.06C300.056 671.45 280.288 676.885 260.123 680.28C257.663 704.725 257.315 729.336 259.083 753.84Z" fill="#FFC29E"/>
<path d="M320.473 631.99C322.18 615.613 325.615 599.463 330.723 583.81C315.097 588.904 298.978 592.336 282.633 594.05C281.453 596.63 280.283 599.22 279.163 601.9C272.845 617.376 268.03 633.423 264.783 649.82C281.178 646.568 297.222 641.745 312.693 635.42C315.353 634.32 317.923 633.16 320.473 631.99Z" fill="#FFC29E"/>
<path d="M250.532 319.13C243.144 300.062 237.706 280.294 234.302 260.13C209.86 257.678 185.251 257.344 160.752 259.13C168.455 282.48 178.175 305.115 189.802 326.78C209.734 322.182 230.082 319.619 250.532 319.13Z" fill="#FFC29E"/>
<path d="M230.393 230.45C228.172 204.35 228.172 178.109 230.393 152.01C198.775 143.427 166.522 137.385 133.941 133.94C137.385 166.548 143.435 198.828 152.032 230.47C178.104 228.247 204.319 228.241 230.393 230.45Z" fill="#FFC29E"/>
<path d="M189.752 587.83C178.112 609.512 168.385 632.168 160.682 655.54C185.211 657.326 209.85 656.991 234.322 654.54C237.71 634.339 243.142 614.534 250.532 595.43C230.067 594.957 209.703 592.411 189.752 587.83Z" fill="#FFC29E"/>
<path d="M655.456 160.71C632.116 168.401 609.488 178.104 587.826 189.71C592.408 209.644 594.954 229.992 595.426 250.44C614.495 243.054 634.262 237.62 654.426 234.22C656.886 209.792 657.23 185.197 655.456 160.71Z" fill="#FFC29E"/>
<path d="M348.044 255.51C348.044 258.41 348.134 261.24 348.244 264.07C362.69 271.914 376.272 281.255 388.764 291.94C390.035 275.527 393.035 259.293 397.714 243.51C395.804 241.45 393.874 239.4 391.844 237.37C379.974 225.61 367.005 215.015 353.114 205.73C349.831 222.122 348.134 238.792 348.044 255.51Z" fill="#FFC29E"/>
<path d="M753.917 259.01C729.371 257.214 704.716 257.549 680.227 260.01C676.828 280.195 671.39 299.983 663.997 319.07C684.479 319.537 704.86 322.083 724.827 326.67C736.473 305.005 746.206 282.366 753.917 259.01Z" fill="#FFC29E"/>
<path d="M635.376 312.64C641.699 297.165 646.517 281.118 649.766 264.72C633.372 267.972 617.328 272.795 601.856 279.12C599.186 280.23 596.616 281.39 594.056 282.57C592.343 298.939 588.907 315.082 583.806 330.73C599.441 325.629 615.57 322.193 631.926 320.48C633.096 317.91 634.266 315.32 635.376 312.64Z" fill="#FFC29E"/>
<path d="M708.847 561.48C699.561 547.568 688.959 534.582 677.187 522.7C675.187 520.65 673.067 518.7 670.987 516.79C655.226 521.461 639.016 524.458 622.627 525.73C633.325 538.224 642.68 551.809 650.537 566.26C653.337 566.37 656.157 566.46 659.037 566.46C675.761 566.396 692.441 564.729 708.847 561.48Z" fill="#FFC29E"/>
<path d="M684.157 684.09C686.378 710.206 686.378 736.464 684.157 762.58C715.774 771.152 748.028 777.171 780.608 780.58C777.169 747.983 771.127 715.713 762.538 684.08C736.459 686.3 710.238 686.304 684.157 684.09Z" fill="#FFC29E"/>
<path d="M654.536 680.26C634.345 676.862 614.55 671.424 595.456 664.03C594.99 684.505 592.443 704.88 587.856 724.84C609.538 736.496 632.198 746.233 655.576 753.94C657.354 729.396 657.006 704.744 654.536 680.26Z" fill="#FFC29E"/>
<path d="M664.057 595.42C671.45 614.487 676.888 634.255 680.287 654.42C704.73 656.866 729.337 657.201 753.837 655.42C746.154 632.07 736.451 609.435 724.837 587.77C704.889 592.371 684.524 594.934 664.057 595.42Z" fill="#FFC29E"/>
<path d="M388.814 622.61C376.301 633.32 362.692 642.678 348.214 650.53C348.114 653.34 348.034 656.16 348.034 659.04C348.124 675.758 349.821 692.428 353.104 708.82C367 699.537 379.973 688.942 391.844 677.18C393.894 675.18 395.844 673.06 397.764 670.98C393.084 655.217 390.084 639.004 388.814 622.61Z" fill="#FFC29E"/>
<path d="M659.037 348.04C656.137 348.04 653.287 348.13 650.457 348.24C642.613 362.69 633.272 376.274 622.587 388.77C639.005 390.057 655.242 393.074 671.027 397.77C673.087 395.86 675.147 393.93 677.187 391.89C688.95 380.021 699.548 367.051 708.837 353.16C692.44 349.856 675.763 348.141 659.037 348.04Z" fill="#FFC29E"/>
<path d="M684.087 230.39C710.207 228.164 736.469 228.164 762.588 230.39C771.161 198.77 777.18 166.513 780.589 133.93C747.977 137.375 715.694 143.424 684.047 152.02C686.277 178.095 686.291 204.313 684.087 230.39Z" fill="#FFC29E"/>
<path d="M566.536 659.04C566.536 656.14 566.436 653.3 566.336 650.47C551.886 642.636 538.304 633.297 525.816 622.61C524.528 639.022 521.512 655.252 516.816 671.03C518.726 673.09 520.646 675.14 522.686 677.18C534.553 688.943 547.522 699.538 561.416 708.82C564.715 692.429 566.429 675.759 566.536 659.04Z" fill="#FFC29E"/>
<path d="M255.532 348.05C238.818 348.136 222.152 349.831 205.762 353.11C215.045 367 225.636 379.97 237.392 391.84C239.442 393.84 241.512 395.84 243.592 397.76C259.351 393.068 275.561 390.052 291.952 388.76C281.243 376.278 271.878 362.703 264.012 348.26C261.202 348.14 258.392 348.05 255.532 348.05Z" fill="#FFC29E"/>
<path d="M230.463 684.15C204.359 686.371 178.115 686.371 152.012 684.15C143.425 715.766 137.382 748.019 133.941 780.6C166.55 777.156 198.83 771.107 230.473 762.51C228.253 736.437 228.25 710.223 230.463 684.15Z" fill="#FFC29E"/>
<path d="M255.532 566.51C258.442 566.51 261.282 566.42 264.102 566.31C271.947 551.859 281.292 538.274 291.982 525.78C275.562 524.512 259.322 521.512 243.532 516.83C241.472 518.74 239.412 520.66 237.372 522.7C225.613 534.571 215.021 547.544 205.742 561.44C222.138 564.724 238.811 566.422 255.532 566.51Z" fill="#FFC29E"/>
<path d="M369.064 567.26C368.924 567.33 368.794 567.41 368.664 567.49C361.497 582.166 356.154 597.665 352.754 613.64C366.278 604.27 378.595 593.267 389.424 580.88C382.252 576.945 375.439 572.387 369.064 567.26Z" fill="#FFC29E"/>
<path d="M333.703 525.1H333.263C321.036 535.944 310.176 548.238 300.923 561.71C316.903 558.323 332.408 552.994 347.093 545.84L347.333 545.43C342.205 539.064 337.644 532.262 333.703 525.1Z" fill="#FFC29E"/>
<path d="M317.193 472.65L316.713 472.51C301.292 477.838 286.577 485.025 272.893 493.91C289.052 496.834 305.508 497.761 321.893 496.67C319.635 488.814 318.062 480.778 317.193 472.65Z" fill="#FFC29E"/>
<path d="M317.193 441.9C318.079 433.778 319.669 425.748 321.943 417.9L321.573 417.61C305.265 416.624 288.897 417.632 272.833 420.61C286.532 429.514 301.268 436.71 316.713 442.04L317.193 441.9Z" fill="#FFC29E"/>
<path d="M333.233 389.42L333.723 389.48C337.658 382.296 342.219 375.473 347.353 369.09L347.113 368.67C332.399 361.505 316.864 356.169 300.853 352.78C310.114 366.267 320.988 378.571 333.233 389.42Z" fill="#FFC29E"/>
<path d="M369.094 347.36C375.466 342.236 382.275 337.682 389.444 333.75C389.444 333.58 389.444 333.42 389.384 333.24C378.547 321.019 366.259 310.166 352.794 300.92C356.181 316.906 361.51 332.418 368.664 347.11L369.094 347.36Z" fill="#FFC29E"/>
<path d="M417.845 321.97C425.71 319.709 433.757 318.133 441.895 317.26C441.895 317.09 441.985 316.92 442.035 316.75C436.688 301.268 429.468 286.498 420.535 272.77C417.551 288.854 416.544 305.242 417.535 321.57C417.645 321.7 417.745 321.84 417.845 321.97Z" fill="#FFC29E"/>
<path d="M417.845 592.63L417.585 592.97C416.594 609.278 417.601 625.646 420.585 641.71C429.484 628.008 436.681 613.273 442.015 597.83C442.015 597.68 441.935 597.53 441.885 597.38C433.748 596.503 425.704 594.913 417.845 592.63Z" fill="#FFC29E"/>
<path d="M496.735 592.62C488.857 594.909 480.792 596.502 472.635 597.38L472.515 597.83C477.858 613.3 485.071 628.06 493.995 641.78C496.984 625.693 497.991 609.301 496.995 592.97L496.735 592.62Z" fill="#FFC29E"/>
<path d="M525.116 580.85C525.116 581 525.116 581.15 525.116 581.3C535.923 593.49 548.173 604.319 561.596 613.55C558.131 597.517 552.711 581.971 545.456 567.26C539.083 572.371 532.277 576.919 525.116 580.85Z" fill="#FFC29E"/>
<path d="M580.836 525.11C576.901 532.288 572.343 539.108 567.216 545.49L567.436 545.88C582.1 553.024 597.581 558.35 613.536 561.74C604.177 548.237 593.195 535.935 580.836 525.11Z" fill="#FFC29E"/>
<path d="M597.836 472.51L597.366 472.64C596.476 480.761 594.891 488.79 592.626 496.64L592.976 496.91C609.285 497.896 625.652 496.889 641.716 493.91C628.015 485.017 613.28 477.831 597.836 472.51Z" fill="#FFC29E"/>
<path d="M597.356 441.9L597.836 442.03C613.303 436.697 628.056 429.487 641.766 420.56C625.677 417.571 609.281 416.564 592.946 417.56L592.596 417.83C594.879 425.7 596.472 433.754 597.356 441.9Z" fill="#FFC29E"/>
<path d="M567.216 369.11C572.333 375.481 576.884 382.287 580.816 389.45C580.976 389.45 581.126 389.4 581.286 389.39C593.476 378.575 604.305 366.319 613.536 352.89C597.49 356.377 581.933 361.825 567.216 369.11Z" fill="#FFC29E"/>
<path d="M545.446 347.35L545.906 347.09C553.042 332.417 558.365 316.93 561.756 300.97C548.233 310.346 535.917 321.352 525.086 333.74C532.258 337.672 539.07 342.226 545.446 347.35Z" fill="#FFC29E"/>
<path d="M496.665 321.96L496.965 321.57C497.956 305.265 496.949 288.9 493.965 272.84C485.064 286.537 477.867 301.269 472.535 316.71C472.535 316.88 472.625 317.05 472.675 317.22C480.794 318.104 488.821 319.69 496.665 321.96Z" fill="#FFC29E"/>
<path d="M457.275 572.54C520.921 572.54 572.516 520.945 572.516 457.3C572.516 393.655 520.921 342.06 457.275 342.06C393.629 342.06 342.034 393.655 342.034 457.3C342.034 520.945 393.629 572.54 457.275 572.54Z" fill="#FFC29E"/>
<path d="M457.275 572.54C520.921 572.54 572.516 520.945 572.516 457.3C572.516 393.655 520.921 342.06 457.275 342.06C393.629 342.06 342.034 393.655 342.034 457.3C342.034 520.945 393.629 572.54 457.275 572.54Z" fill="#FFC29E"/>
</svg>
