<svg width="20" height="20" viewBox="0 0 30 30" fill="none" xmlns="http://www.w3.org/2000/svg">
<path class="footer-icon-color" d="M18.1427 20.468C18.6048 20.0078 18.6048 20.0078 19.1597 19.4556C19.6745 18.9433 20.0794 18.5409 20.3376 18.285C21.6239 17.01 23.3422 17.0099 24.631 18.2869C25.8288 19.4739 27.0422 20.6866 28.2768 21.9304C29.5807 23.2445 29.5724 24.9639 28.2633 26.2851C28.0042 26.5465 27.5798 26.8575 27.0029 27.2289C26.8742 27.3118 26.7389 27.3969 26.5978 27.4839C26.218 27.7183 25.8127 27.9564 25.4075 28.1866C25.1645 28.3247 24.9748 28.4298 24.8814 28.4803C23.3991 29.3353 20.9914 29.5204 19.4471 28.9238C19.2921 28.8765 19.0149 28.7824 18.633 28.6373C18.0041 28.3984 17.3055 28.1005 16.5543 27.7397C14.4118 26.7105 12.2701 25.3805 10.2689 23.7156C9.46523 23.0471 8.69912 22.3354 7.97601 21.5795C7.3926 20.9696 6.8381 20.3341 6.31175 19.6758C4.57875 17.5081 3.21798 15.1884 2.18608 12.8679C1.82435 12.0544 1.52923 11.2979 1.2955 10.6171C1.1536 10.2037 1.06285 9.90401 1.03773 9.79899C0.456485 8.19837 0.785972 5.78902 1.75497 4.37119C1.81552 4.27747 1.92166 4.1167 2.06137 3.91092C2.29417 3.56806 2.53614 3.22497 2.77585 2.9031C2.87986 2.76344 2.98147 2.6305 3.08022 2.5052C3.33351 2.18381 3.56344 1.91816 3.76986 1.71506C5.05831 0.447906 6.77357 0.449675 8.06436 1.7172C8.5905 2.23353 10.8633 4.50787 11.6854 5.33713C13.016 6.68016 13.019 8.37775 11.6902 9.71319C11.4908 9.91357 11.0578 10.3475 10.4605 10.9455C9.95316 11.4533 9.95316 11.4533 9.53161 11.8752C9.3141 12.0928 9.23688 12.1701 9.18684 12.2201C9.27144 12.435 9.4117 12.7671 9.60288 13.1804C9.97295 13.9804 10.397 14.78 10.8661 15.5224C11.3773 16.3312 11.9106 17.0204 12.4553 17.5514C12.9582 18.0418 13.5582 18.5164 14.2346 18.9705C15.0241 19.5005 15.8741 19.9748 16.7245 20.385C17.1652 20.5975 17.5187 20.7521 17.7595 20.8497C17.8143 20.7951 17.8965 20.7132 18.1427 20.468ZM9.1507 12.1266C9.15178 12.1295 9.15288 12.1323 9.15399 12.1353C9.15311 12.1326 9.15194 12.1297 9.1507 12.1266ZM27.2121 22.9871C25.9805 21.7462 24.77 20.5364 23.5752 19.3524C22.8711 18.6548 22.0952 18.6548 21.3935 19.3504C21.1361 19.6054 20.7318 20.0073 20.2207 20.5158C19.6631 21.0708 19.6631 21.0708 19.2012 21.5308C18.8317 21.8988 18.8317 21.8988 18.7394 21.9908C18.372 22.3568 17.7583 22.4742 17.3012 22.2815C17.049 22.1837 16.6202 22 16.0729 21.736C15.1628 21.2971 14.2523 20.7891 13.3986 20.2159C12.6512 19.7142 11.9813 19.1842 11.4081 18.6254C10.7702 18.0035 10.1674 17.2246 9.59811 16.3237C9.09086 15.521 8.63708 14.6654 8.24147 13.8101C8.00368 13.296 7.83694 12.8934 7.75319 12.6713C7.5629 12.1977 7.69138 11.5945 8.04915 11.2366C8.13342 11.1522 8.13342 11.1522 8.47059 10.8149C8.89206 10.3931 8.89206 10.3931 9.39779 9.88684C9.99571 9.28824 10.4284 8.85468 10.6268 8.65525C11.373 7.90536 11.3716 7.15168 10.62 6.39303C9.80263 5.56857 7.53363 3.298 7.01356 2.78763C6.30575 2.09257 5.52604 2.09177 4.82176 2.78441C4.66778 2.93591 4.47592 3.15759 4.25831 3.43369C4.16843 3.54774 4.07505 3.66991 3.97888 3.79904C3.7536 4.10154 3.52377 4.42742 3.30235 4.75351C3.16954 4.94912 3.06958 5.10053 3.00419 5.20129C2.29373 6.24115 2.03326 8.14586 2.46725 9.34933C2.50324 9.48399 2.58394 9.75054 2.71422 10.13C2.9341 10.7705 3.21333 11.4863 3.55668 12.2584C4.53929 14.4681 5.83595 16.6785 7.48334 18.7391C7.98238 19.3633 8.50771 19.9653 9.05996 20.5426C9.74297 21.2567 10.4674 21.9296 11.2282 22.5625C13.1282 24.1432 15.1664 25.4089 17.2038 26.3876C17.9156 26.7295 18.5754 27.0108 19.1657 27.235C19.5152 27.3678 19.7606 27.4512 19.9351 27.5064C21.1083 27.9581 23.0425 27.8094 24.1483 27.1718C24.2506 27.1162 24.4322 27.0155 24.6666 26.8824C25.0572 26.6605 25.4475 26.4311 25.8103 26.2073C25.9435 26.1252 26.0706 26.0452 26.1909 25.9677C26.6802 25.6527 27.038 25.3905 27.1978 25.2293C27.9297 24.4906 27.9335 23.714 27.2121 22.9871Z" fill="#E4E4E4"/>
</svg>
