<svg width="14" height="18" viewBox="0 0 22 26" fill="none" xmlns="http://www.w3.org/2000/svg">
<path class="footer-logo-color" d="M18.5674 2.66435C16.7777 0.946261 14.3009 0 11.5934 0C7.45754 0 4.9138 1.69534 3.50817 3.11747C1.77581 4.87009 0.782471 7.19725 0.782471 9.50233C0.782471 12.3965 1.99305 14.6179 4.0203 15.4443C4.15639 15.5001 4.29335 15.5282 4.42761 15.5282C4.8553 15.5282 5.19416 15.2483 5.31157 14.7994C5.38002 14.5419 5.53856 13.9066 5.60752 13.6308C5.75509 13.0862 5.63586 12.8242 5.314 12.4449C4.72768 11.7511 4.45463 10.9308 4.45463 9.86308C4.45463 6.69173 6.81607 3.32126 11.1928 3.32126C14.6655 3.32126 16.8227 5.29503 16.8227 8.47222C16.8227 10.4772 16.3909 12.334 15.6064 13.7007C15.0614 14.6504 14.1029 15.7825 12.6314 15.7825C11.9951 15.7825 11.4235 15.5211 11.0629 15.0654C10.7222 14.6347 10.6098 14.0782 10.7469 13.4982C10.9017 12.8429 11.1128 12.1594 11.3171 11.4986C11.6897 10.2918 12.0419 9.15188 12.0419 8.24244C12.0419 6.6869 11.0856 5.64167 9.66242 5.64167C7.85379 5.64167 6.43683 7.47863 6.43683 9.82372C6.43683 10.9738 6.74249 11.8341 6.88087 12.1643C6.65301 13.1297 5.29887 18.869 5.04202 19.9513C4.89348 20.583 3.99882 25.573 5.47965 25.9709C7.14346 26.4179 8.63069 21.558 8.78207 21.0089C8.90476 20.5623 9.33402 18.8734 9.59706 17.8353C10.4003 18.609 11.6935 19.132 12.9519 19.132C15.3241 19.132 17.4576 18.0645 18.9592 16.1263C20.4156 14.2464 21.2177 11.6262 21.2177 8.74868C21.2176 6.49916 20.2515 4.28143 18.5674 2.66435Z"/>
</svg>
