<svg width="28" height="19" viewBox="0 0 28 19" fill="none" xmlns="http://www.w3.org/2000/svg">
<path d="M26.0312 0.0146484H1.96875C0.875 0.0146484 0 0.871791 0 1.94322V16.0861C0 17.1575 0.875 18.0146 1.96875 18.0146H26.0312C27.125 18.0146 28 17.1575 28 16.0861V1.94322C28 0.871791 27.125 0.0146484 26.0312 0.0146484ZM25.725 1.30036C23.1875 3.10036 16.7125 7.72893 14.4812 9.31465C14.2187 9.48608 13.9125 9.48608 13.6937 9.31465C11.4625 7.72893 4.9875 3.10036 2.45 1.30036H25.725ZM26.0312 16.7289H1.96875C1.575 16.7289 1.3125 16.4718 1.3125 16.0861V2.07179C3.5 3.61465 10.5875 8.67179 12.9062 10.3432C13.2563 10.6004 13.65 10.7289 14.0875 10.7289C14.4813 10.7289 14.9188 10.6004 15.2688 10.3432C17.5438 8.71465 24.325 3.87179 26.6875 2.20036V16.0861C26.6875 16.4718 26.425 16.7289 26.0312 16.7289Z" fill="white"/>
</svg>
